<svg width="60" height="60" viewBox="0 0 60 60" fill="none" xmlns="http://www.w3.org/2000/svg">
<path d="M25.8 43.8L46.95 22.65L42.75 18.45L25.8 35.4L17.25 26.85L13.05 31.05L25.8 43.8ZM30 60C25.85 60 21.95 59.212 18.3 57.636C14.65 56.06 11.475 53.923 8.775 51.225C6.075 48.527 3.938 45.352 2.364 41.7C0.790004 38.048 0.0020038 34.148 3.79746e-06 30C-0.0019962 25.852 0.786004 21.952 2.364 18.3C3.942 14.648 6.079 11.473 8.775 8.775C11.471 6.077 14.646 3.94 18.3 2.364C21.954 0.788 25.854 0 30 0C34.146 0 38.046 0.788 41.7 2.364C45.354 3.94 48.529 6.077 51.225 8.775C53.921 11.473 56.059 14.648 57.639 18.3C59.219 21.952 60.006 25.852 60 30C59.994 34.148 59.206 38.048 57.636 41.7C56.066 45.352 53.929 48.527 51.225 51.225C48.521 53.923 45.346 56.061 41.7 57.639C38.054 59.217 34.154 60.004 30 60Z" fill="#FE0000"/>
</svg>
