<svg width="26" height="29" viewBox="0 0 26 29" fill="none" xmlns="http://www.w3.org/2000/svg">
<path fill-rule="evenodd" clip-rule="evenodd" d="M25.2337 15.0302C25.1394 14.526 24.9999 13.7641 24.7927 13.5359C24.5076 13.2212 23.4942 13.0372 23.0306 12.8771C21.1968 12.2422 19.5619 11.6606 17.6931 10.9871C19.1085 11.0938 20.3167 11.1748 21.806 11.2944C22.2614 11.3312 22.8009 11.4582 23.1291 11.3386C23.7486 11.1104 23.8758 9.35472 23.9619 8.43825C24.2532 5.29685 23.6481 2.83452 22.3455 0.881951C22.0645 0.460521 21.7424 0.00964491 21.3178 0.00412399C20.9711 -0.00139694 20.5916 0.254405 20.5834 0.618786C20.5773 0.891151 20.9178 1.27209 21.1229 1.58495C22.2634 3.32588 22.8706 6.02377 22.4932 8.87809C22.4398 9.27927 22.3783 9.71174 22.1998 10.0651C20.645 9.9381 19.0552 9.84057 17.5475 9.66942C18.0767 9.50011 18.5629 9.46882 19.1147 9.36208C19.5249 9.28295 20.2962 9.18909 20.5342 8.92225C20.9198 8.49162 20.8296 6.99545 20.7783 6.11026C20.6675 4.16874 20.1034 2.73146 19.2111 1.45428C18.8603 0.95188 18.1793 -0.0455643 17.4962 0.00412399C17.207 0.0243674 16.8685 0.270968 16.8603 0.618786C16.85 1.01261 17.447 1.44324 17.7424 1.80578C18.969 3.30931 19.4962 5.25268 19.3588 8.00026C18.1813 8.18797 17.0613 8.42905 15.9311 8.65909C15.7034 8.30759 15.2746 8.1346 14.9526 7.86776C15.1023 6.90343 14.8398 6.02009 13.9249 6.37343C13.4572 6.55378 13.5454 7.19788 13.5331 7.86776C13.2541 7.83831 12.8479 7.9248 12.651 7.82359C12.7659 6.91079 12.5546 6.11578 11.6725 6.32926C11.131 6.45992 11.2315 7.1666 11.2315 7.86592C10.6654 8.00394 10.3536 8.36648 9.95766 8.65725C8.90534 8.37016 7.68276 8.2395 6.62839 7.95425C6.40274 5.26924 7.12686 2.82715 8.63662 1.31994C8.89303 1.06414 9.15354 0.878269 9.12688 0.572778C9.09816 0.243363 8.6879 -0.0161198 8.34328 0.00228329C7.87353 0.0280476 7.26634 0.778893 6.92378 1.23161C5.82428 2.68545 5.14529 4.82389 5.16171 7.03042C5.16581 7.60459 5.13914 8.64068 5.45504 8.96274C5.69505 9.2075 6.52377 9.27927 6.92378 9.35841C7.3566 9.44306 7.73609 9.48539 8.1484 9.5774C8.2284 9.59581 8.43149 9.58476 8.44174 9.7099C6.81096 9.78351 5.3094 9.97491 3.69092 10.0614C3.02014 7.13715 3.47143 3.75651 4.71862 1.71377C4.97914 1.28866 5.48581 0.935318 5.35453 0.440276C5.28684 0.186313 4.90939 -0.0105993 4.62016 0.000442585C3.88374 0.0298875 3.22117 1.5739 2.9545 2.1536C1.99654 4.23315 1.62936 7.10771 2.22014 9.97307C2.33706 10.5436 2.46834 11.138 2.75963 11.2907C3.07553 11.4564 3.63143 11.3331 4.1299 11.2907C5.55966 11.1711 6.93813 11.0533 8.292 11.0276C6.07864 11.7894 4.18734 12.382 1.9268 13.1807C1.62526 13.2875 1.27243 13.4144 1.1432 13.5764C0.92166 13.8524 0.851915 14.5996 0.751401 15.1572C0.115496 18.6832 0.722682 22.1633 2.1709 24.69C2.42526 25.1335 2.75758 25.6635 3.14938 25.7003C3.57605 25.739 3.97195 25.4777 3.98221 25.0857C3.98836 24.7967 3.58015 24.3183 3.39553 23.987C2.79245 22.9178 2.3268 21.8062 2.07244 20.3414C1.71757 18.2839 1.88577 16.3221 2.31655 14.4542C4.53401 13.6316 6.83557 12.8844 9.07354 12.0821C8.38841 12.8403 7.50019 13.5138 6.72275 14.2794C6.46223 14.537 6.15043 14.802 6.03761 15.0707C5.7853 15.6725 5.79146 17.1871 5.79351 18.0134C5.80171 21.0536 6.51762 24.3551 7.70327 26.6242C8.12174 27.4265 8.612 28.2436 9.12072 28.7663C9.13919 28.7865 9.15765 28.8049 9.18021 28.8233C9.19457 28.8381 9.20893 28.8509 9.22329 28.8657H9.23355C9.35047 28.9485 9.49611 28.9982 9.65611 28.9982C10.0356 28.9982 10.3412 28.7221 10.3412 28.3835C10.3412 28.2565 10.2982 28.1369 10.2243 28.0394C10.093 27.7872 9.85714 27.5204 9.66227 27.2425C8.78431 25.9837 8.19969 24.482 7.80173 22.9362C7.44276 21.5394 7.13096 19.3918 7.21506 17.533C7.24378 16.8926 7.17814 16.1381 7.36275 15.6431C7.44686 15.4149 7.79353 15.1259 8.04789 14.8959C8.60995 14.3916 9.13919 13.9592 9.61509 13.4899C9.84894 13.2599 10.0582 12.8476 10.3987 12.8752C8.39456 14.8812 9.80586 19.7341 11.8182 20.9155C12.6736 21.4179 13.728 21.2302 14.3639 20.783C16.1608 19.5243 17.3424 15.3247 15.9311 13.3151C15.8305 13.1715 15.5618 13.0409 15.6377 12.8311C16.4623 13.4844 17.1311 14.1782 17.89 14.8959C18.1547 15.1462 18.5321 15.4001 18.6244 15.6431C18.7393 15.943 18.7085 16.4381 18.7229 16.7859C18.8849 21.0094 18.0439 24.7084 16.2736 27.2867C16.0767 27.5738 15.8736 27.813 15.7546 28.032C15.6826 28.124 15.64 28.2321 15.6317 28.3443C15.6233 28.4565 15.6494 28.5687 15.7071 28.6685C15.7649 28.7683 15.8521 28.852 15.9592 28.9105C16.0663 28.9689 16.1893 28.9999 16.3146 29C16.4746 29 16.6203 28.9503 16.7372 28.8675H16.7618C16.7864 28.8399 16.809 28.8123 16.8336 28.7865C16.848 28.7718 16.8603 28.7571 16.8726 28.7405C19.1988 26.0279 20.5198 21.348 20.0911 16.0829C20.0644 15.748 20.0747 15.3523 19.9926 15.1167C19.8901 14.8168 19.5003 14.6125 19.209 14.3254C18.448 13.5782 17.568 12.7887 16.9567 12.0857C19.1372 12.9396 21.5311 13.6058 23.6665 14.5021C24.3865 17.1374 24.1117 20.7591 23.127 22.9804C22.967 23.3392 22.7557 23.7128 22.5404 24.079C22.3373 24.4232 21.9557 24.8243 22.0009 25.1777C22.0419 25.4997 22.3927 25.7114 22.7352 25.704C23.5065 25.6875 24.2019 23.998 24.4501 23.4202C25.4163 21.1695 25.806 18.0539 25.2337 15.0302Z" fill="#FE0000"/>
</svg>
